PathFileType	4	(X/Y/Z)	C:/Users/beibeiliu/ov580/test_trc/User1\sequence.38_training_dense_right.trc
DataRate	CameraRate	NumFrames	NumMarkers	Units	OrigDataRate	OrigDataStartFrame	OrigNumFrames
120	120	24	19	mm	120	126	500
Frame#	Time	ThumbCMC			ThumbMCP			ThumbIP			ThumbTip			IndexMCP			IndexPIP			IndexTip			MiddleMCP			MiddlePIP			MiddleTip			RingMCP			RingPIP			RingTip			PinkyMCP			PinkyPIP			PinkyTip			BackHand1			BackHand2			BackHand3	
		X0	Y0	Z0	X1	Y1	Z1	X2	Y2	Z2	X3	Y3	Z3	X4	Y4	Z4	X5	Y5	Z5	X6	Y6	Z6	X7	Y7	Z7	X8	Y8	Z8	X9	Y9	Z9	X10	Y10	Z10	X11	Y11	Z11	X12	Y12	Z12	X13	Y13	Z13	X14	Y14	Z14	X15	Y15	Z15	X16	Y16	Z16	X17	Y17	Z17	X18	Y18	Z18	
125	1.04167	231.646	-19.4053	51.5474	207.575	-19.0517	14.2213	196.319	-31.2772	-7.52793	182.904	-48.3309	-26.9189	261.248	-65.6571	-10.2776	255.061	-70.7598	-39.6083	232.347	-68.0307	-64.315	252.91	-96.0306	-5.59595	250.368	-101.61	-41.0332	226.453	-99.0578	-68.557	232.801	-106.73	-0.490028	218.776	-113.16	-31.6137	203.868	-99.7346	-48.8643	210.955	-109.217	20.3691	207.52	-119.941	-0.529769	201.124	-119.256	-28.0451	232.895	-90.3393	56.9981	227.661	-76.4666	88.1867	252.495	-54.6071	62.7672	
126	1.05	228.906	-20.0946	50.2639	205.646	-19.4256	16.7085	195.001	-30.4131	-9.42548	182.043	-45.9625	-24.5939	262.729	-61.943	-10.8683	253.494	-71.9171	-41.9471	233.014	-71.646	-63.2544	254.303	-95.1559	-8.91884	247.621	-100.847	-40.6736	224.804	-97.0151	-65.722	232.991	-109.671	-0.536112	224.545	-113.507	-29.504	203.116	-105.172	-50.8243	212.073	-111.956	21.2515	207.197	-123.608	-0.875332	205.578	-123.374	-28.9156	236.265	-86.6573	55.497	228.641	-78.1405	89.2845	254.084	-54.6035	62.3966	
127	1.05833	227.388	-18.958	50.264	204.363	-23.5048	16.566	192.632	-30.7938	-6.74257	181.013	-46.2822	-26.511	260.293	-63.7009	-10.9483	256.919	-67.2851	-42.6583	236.375	-68.1883	-66.1251	256.47	-89.622	-8.72348	246.262	-98.3606	-41.8512	222.599	-91.4881	-67.3825	237.574	-105.566	-0.000308948	226.039	-115.207	-31.8618	207.262	-108.597	-49.5458	215.095	-116.506	18.8903	211.275	-124.892	-3.32897	208.909	-130.076	-27.9896	234.949	-87.8351	54.8168	229.015	-73.0978	90.3503	248.855	-53.3064	65.218	
128	1.06667	224.207	-14.9826	52.0015	200.885	-19.9698	20.2205	191.389	-31.617	-6.44484	179.003	-47.0411	-29.3589	262.042	-58.1925	-11.4212	256.835	-66.7893	-37.6097	238.769	-68.022	-62.484	255.695	-86.222	-6.37775	249.203	-92.9763	-42.8277	221.444	-87.3851	-66.9398	241.078	-105.059	-0.856848	231.52	-113.781	-31.0485	211.33	-106.89	-52.2398	217.361	-117.036	20.648	218.627	-124.932	2.20442	217.331	-130.04	-22.7161	236.205	-86.6556	54.1263	231.209	-77.2314	89.8644	248.176	-50.9702	66.0127	
129	1.075	221.401	-18.8123	51.4689	199.625	-21.308	18.0217	189.544	-29.1278	-8.05994	177.427	-44.8601	-27.7712	260.81	-58.9415	-12.2081	258.746	-62.1404	-38.6006	239.935	-66.3428	-62.9053	258.134	-84.9631	-10.1521	247.627	-92.8369	-42.0256	221.08	-83.4536	-66.2195	242.256	-103.001	1.90828	235.816	-113.398	-26.2036	213.322	-108.615	-51.0269	221.373	-111.559	23.6237	218.633	-129.785	2.52134	218.595	-138.24	-20.7461	237.4	-83.9162	56.361	230.275	-72.4378	90.8301	249.653	-48.2621	65.2373	
130	1.08333	219.293	-18.3259	54.438	197.2	-20.2205	15.9578	189.943	-32.4767	-8.50017	178.542	-47.5278	-26.37	260.621	-55.3559	-8.8291	259.372	-59.3897	-37.814	240.755	-67.6248	-61.7799	255.493	-87.3772	-9.42993	246.495	-90.223	-42.4022	221.214	-84.5678	-62.4764	241.922	-104.134	2.22948	236.075	-111.99	-28.9236	215.432	-107.763	-52.2729	223.275	-113.073	21.1571	221.751	-128.209	7.3364	225.54	-140.247	-19.0051	239.1	-81.9809	56.2689	228.641	-77.182	90.5534	246.973	-49.2599	64.5817	
131	1.09167	219.324	-19.6702	52.9961	195.83	-20.09	21.8658	188.092	-30.1295	-8.88836	178.584	-44.3787	-26.4767	261.004	-50.3816	-6.50495	260.354	-59.5901	-35.8445	243.402	-61.5902	-61.7277	254.243	-83.5574	-4.74348	244.831	-88.8321	-42.1889	215.132	-84.4836	-61.1985	241.157	-102.391	4.9508	236.912	-111.217	-27.487	214.221	-107.407	-50.4739	222.693	-113.517	23.7901	222.653	-127.998	4.12054	226.941	-140.781	-14.7655	236.781	-80.7608	58.5731	232.386	-76.9454	88.297	248.043	-49.8852	64.032	
132	1.1	216.514	-14.2469	55.7885	194.863	-18.6637	21.0611	188.951	-29.4782	-9.22965	180.292	-45.9438	-25.3029	258.036	-54.6006	-5.45722	257.232	-61.9302	-35.5688	241	-60.9342	-65.9244	255.41	-80.1228	-6.62014	242.219	-87.9363	-42.1634	213.697	-81.7531	-58.3412	241.395	-101.773	3.14541	237.593	-109.463	-26.2152	215.842	-103.328	-50.6587	220.857	-111.815	25.8575	223.369	-126.983	3.28091	227.118	-136.617	-16.021	237.29	-83.5809	60.0151	228.242	-77.4024	91.909	247.459	-47.1267	68.9842	
133	1.10833	217.005	-14.1805	55.2143	196.906	-24.0795	18.6962	189.649	-32.5987	-4.60456	180.36	-46.5437	-25.5061	260.353	-51.2672	-9.34467	256.246	-58.651	-38.5773	236.792	-64.7168	-64.5343	250.619	-84.4298	-9.1744	241.347	-84.2131	-40.0943	206.926	-77.6288	-55.6539	239.75	-102.475	4.09156	233.604	-111.599	-26.4878	212.617	-107.206	-47.9732	219.854	-115.428	23.9432	221.301	-129.781	4.25416	227.486	-135.981	-14.2706	235.617	-82.6697	57.3316	232.28	-73.9629	87.7319	247.147	-46.3219	65.8454	
134	1.11667	217.535	-18.1317	56.2321	196.088	-22.906	21.7864	188.717	-29.6334	-9.49021	180.764	-46.2788	-29.2642	258.617	-53.8997	-8.02203	256.918	-56.5475	-37.7253	236.337	-60.6114	-64.9604	250.891	-80.2757	-11.371	233.543	-82.8152	-42.3195	196.098	-69.8201	-51.2406	241.048	-99.7952	1.70451	233.828	-108.187	-27.511	211.133	-100.397	-52.996	220.655	-111.075	25.1506	223.059	-125.787	2.58598	228.699	-136.865	-15.2801	237.095	-80.7579	59.9069	228.249	-73.3964	91.691	246.287	-49.7792	68.4981	
135	1.125	218.353	-16.2959	53.3066	195.633	-19.0884	18.544	189.486	-30.052	-10.223	182.362	-46.9579	-27.2831	258.51	-49.3526	-8.39395	253.288	-59.9887	-38.0294	234.249	-62.9691	-62.5911	246.537	-80.902	-14.2629	228.15	-79.7108	-42.3626	195.411	-66.7115	-48.2099	240.153	-100.307	-2.23232	231.037	-106.52	-31.9969	211.488	-102.876	-49.9902	220.611	-111.047	22.8362	222.721	-128.027	3.3131	228.988	-139.573	-15.0861	236.031	-82.6079	55.4105	230.752	-73.6016	91.4272	246.473	-48.6771	63.2313	
136	1.13333	216.668	-15.6522	55.5161	197.55	-23.604	19.8772	191.238	-33.5637	-6.25505	184.066	-48.0693	-27.0134	256.375	-53.9431	-7.40934	254.303	-56.1594	-38.5945	230.921	-61.6763	-63.8851	244.191	-79.2191	-14.0882	227.212	-75.6873	-41.4033	191.173	-64.1782	-44.1806	238.452	-101.063	1.20544	230.911	-106.841	-29.1643	210.18	-102.604	-52.7931	222.454	-111.766	22.6101	222.737	-127.099	3.34196	231.126	-137.21	-17.1558	237.868	-83.6118	55.8713	228.024	-76.3208	91.1286	247.909	-49.7246	64.5185	
137	1.14167	215.626	-14.7571	54.2343	196.747	-22.5506	17.6722	191.359	-31.8653	-10.6933	182.606	-47.495	-25.6578	257.121	-52.5369	-12.1119	251.963	-55.9965	-39.9006	233.043	-58.8074	-63.7443	243.401	-77.0834	-14.7265	221.27	-71.9485	-44.4142	188.885	-59.8211	-43.7013	239.86	-100.909	-2.48932	231.224	-104.397	-34.3462	210.031	-98.9784	-54.9157	223.913	-112.388	19.0511	225.315	-125.538	3.77575	228.965	-140.796	-17.014	236.594	-85.3324	58.1357	233.005	-72.4869	88.7077	247.766	-45.8015	62.8909	
138	1.15	216.202	-14.6638	53.0546	195.811	-20.1126	18.0168	189.842	-31.0919	-10.2763	180.474	-46.3901	-30.6611	256.68	-52.649	-12.5006	251.287	-55.4878	-42.9416	231.263	-59.7735	-63.3824	244.301	-76.1604	-16.7729	219.971	-71.2744	-43.36	188.512	-63.952	-42.7583	239.586	-97.9661	-0.0392483	230.428	-106.315	-33.2929	211.42	-98.2091	-54.6448	224.845	-112.006	19.632	226.897	-124.304	3.00645	232.746	-139.264	-17.1011	239.979	-82.0239	55.3868	232.167	-75.6878	88.3197	245.672	-46.1522	65.5913	
139	1.15833	215.566	-17.3123	54.6001	197.142	-24.0694	18.3181	189.151	-31.9783	-9.70251	181.795	-47.9912	-25.9621	258.178	-47.3485	-13.1519	250.763	-53.3548	-43.5377	232.453	-56.9354	-62.7115	245.528	-74.3494	-16.0726	220.262	-71.942	-43.1664	187.449	-63.6289	-42.4145	241.365	-94.6801	-0.93939	233.484	-104.207	-30.6445	210.532	-99.5079	-54.6493	224.301	-113.315	20.4917	228.105	-122.421	5.26998	235.031	-137.601	-16.6158	239.665	-80.0486	55.1651	233.139	-73.6842	89.3849	246.613	-46.5373	65.375	
140	1.16667	216.552	-17.3407	52.6083	194.155	-19.0158	17.5199	187.729	-30.7637	-6.37815	181.979	-47.7746	-27.307	256.888	-46.2258	-10.2572	248.908	-55.7863	-42.961	230.941	-55.2876	-65.1609	246.513	-72.4973	-13.2868	222.534	-70.3485	-43.4627	187.032	-64.3501	-43.1356	242.473	-98.563	-1.48538	235.995	-101.321	-32.6853	211.243	-100.357	-54.455	225.152	-109.633	23.3622	229.664	-121.245	6.1194	238.235	-136.595	-18.9216	236.309	-82.4776	58.5166	232.056	-73.2368	87.1001	247.297	-42.459	64.4259	
141	1.175	213.279	-12.8618	54.1163	194.389	-22.8136	16.6997	188.112	-30.8443	-10.6946	181.139	-48.3845	-26.4048	257.551	-44.3222	-14.4928	249.852	-55.0607	-40.9555	229.164	-57.7793	-63.0208	245.779	-73.7018	-13.3089	224.791	-68.6949	-43.0114	189.273	-62.8985	-43.8445	245.051	-92.7658	-4.52026	235.181	-101.465	-34.0368	216.98	-97.1967	-52.965	226.134	-111.518	23.9483	231.362	-124.032	2.58482	237.566	-136.651	-15.1184	241.035	-77.9271	55.2755	232.695	-74.1363	90.2965	246.045	-45.8779	64.7687	
142	1.18333	213.578	-14.3648	49.7725	191.816	-19.4461	16.5515	187.679	-32.1643	-10.9476	180.285	-47.6527	-26.5155	256.544	-44.7577	-12.9539	250.403	-49.9242	-41.3883	231.118	-54.6138	-64.1453	247.467	-71.2952	-16.4972	226.018	-72.4296	-41.4806	186.076	-62.6924	-41.7837	246.948	-93.8803	-5.90136	240.502	-97.4487	-32.1236	214.139	-96.7388	-55.5179	230.875	-110.92	21.2667	235.847	-120.754	4.09597	243.104	-138.113	-15.1914	240.144	-76.2229	58.047	235.873	-75.2327	86.7178	248.28	-40.7688	63.7543	
143	1.19167	212.777	-17.413	50.828	190.738	-21.5718	18.8623	186.139	-32.8556	-11.302	181.836	-49.7731	-31.0015	255.73	-40.5385	-10.9998	249.361	-47.7478	-44.3922	229.536	-56.9944	-64.3207	249.333	-69.0185	-14.3704	226.907	-71.7342	-41.9351	187.762	-63.6224	-42.3971	249.087	-90.5892	-0.790963	238.652	-100.207	-35.8615	218.579	-97.3763	-53.8101	234.058	-109.522	23.7979	238.581	-122.174	5.62383	250.397	-132.202	-17.5869	246.667	-75.3512	54.2633	234.365	-69.4526	90.3949	245.137	-40.6478	62.8398	
144	1.2	207.774	-16.7037	55.767	188.103	-23.7543	18.1568	186.197	-35.8298	-8.15097	179.561	-49.0054	-29.4926	255.726	-38.5103	-14.256	249.264	-49.0164	-43.7533	232.335	-52.053	-64.3863	250.103	-63.7642	-13.5299	226.436	-69.824	-41.9792	191.189	-67.0472	-43.5872	252.437	-89.6953	-3.8903	244.684	-98.1821	-30.8563	220.395	-99.7419	-54.2015	239.59	-110.75	23.2073	246.815	-121.95	1.72727	255.01	-129.414	-14.9094	246.09	-74.6271	53.6131	236.653	-67.7982	91.2175	247.343	-38.7966	63.382	
145	1.20833	206.374	-18.3406	54.1304	189.424	-27.5679	17.0691	184.01	-36.6262	-9.02064	180.709	-51.2574	-30.1679	254.72	-39.5302	-13.708	251.006	-45.6183	-41.2683	231.999	-52.4382	-64.9594	252.337	-64.3109	-13.4189	230.502	-69.6274	-42.4513	193.288	-71.6381	-44.3576	255.761	-87.0963	-2.90057	247.841	-96.0622	-34.2631	223.99	-100.335	-52.8384	244.095	-106.981	23.0757	251.019	-118.857	4.97778	259.905	-132.825	-14.6819	246.806	-76.2839	58.1909	237.972	-68.6681	89.5489	245.583	-39.892	65.1579	
146	1.21667	206.343	-19.7952	51.2568	187.813	-29.3296	20.7768	185.151	-39.0815	-9.283	179.44	-52.8279	-27.2912	254.576	-34.8327	-15.385	250.353	-41.8073	-40.0704	229.641	-56.3296	-64.8642	252.691	-63.0979	-13.6884	231.862	-70.5746	-42.9537	192.778	-74.3105	-45.2249	256.323	-86.8424	-0.739655	249.411	-95.4147	-33.7019	228.294	-99.6865	-52.38	249.23	-109.205	21.5447	256.503	-119.095	2.68605	264.943	-127.123	-20.1866	251.14	-71.4767	55.3124	238.558	-69.754	87.7397	242.224	-37.9667	65.9783	
147	1.225	202.253	-19.0491	52.7132	184.329	-29.8593	21.8308	181.941	-38.9646	-5.72444	178.833	-53.334	-26.2653	251.589	-36.7711	-10.9844	248.339	-44.4063	-41.0035	227.661	-55.7279	-63.9401	254.423	-64.5724	-14.8618	233.39	-69.6078	-44.9844	196.923	-73.7258	-49.024	257.952	-83.7013	-0.932503	253.542	-94.1558	-31.0312	231.664	-99.9226	-51.9817	249.627	-103.411	24.2525	258.034	-117.743	6.70065	268.934	-127.877	-14.5472	249.464	-70.3999	58.3175	239.519	-66.8332	86.8295	240.414	-38.1821	67.0604	
148	1.23333	199.763	-20.4489	55.0351	180.972	-28.9681	20.6577	178.503	-36.9943	-8.05259	173.393	-50.4321	-27.1185	249.387	-32.6266	-13.0746	244.026	-43.9027	-42.976	224.679	-53.403	-64.3741	254.851	-60.0199	-13.8004	241.333	-70.0107	-41.8304	203.451	-79.2676	-51.0217	259.795	-80.925	-1.56294	256.745	-93.4152	-29.459	234.713	-97.9529	-50.704	253.782	-105.097	23.8108	261.068	-119.579	6.64402	269.257	-126.862	-17.947	249.084	-70.3343	56.9655	239.156	-64.578	90.0428	240.346	-36.1703	68.0202	
